<svg xmlns="http://www.w3.org/2000/svg" width="40" height="24" viewBox="0 0 40 24">
  <path d="M5 12 1.5 5.5c-.35-.65.35-1.36 1-1.02L13.8 10.2c.96-.84 2.28-1.62 3.95-2.24 5.12-1.9 12.1-1.66 18.1 2.62.7.5.7 1.34 0 1.84-6 4.28-12.98 4.52-18.1 2.62-1.67-.62-2.99-1.4-3.95-2.24L2.5 19.52c-.65.34-1.35-.37-1-1.02L5 12Z" fill="#d6a85b" stroke="#6f4821" stroke-width="1.4" stroke-linejoin="round"/>
  <path d="M17 8.1c1.25 1.18 1.9 2.48 1.9 3.9s-.65 2.72-1.9 3.9" fill="none" stroke="#7d5125" stroke-width="1.2" stroke-linecap="round"/>
  <path d="M23 7.1c1.55 1.45 2.35 3.08 2.35 4.9s-.8 3.45-2.35 4.9" fill="none" stroke="#8b5a28" stroke-width="1.1" stroke-linecap="round" opacity=".7"/>
  <path d="M29 8.6c.94.98 1.42 2.12 1.42 3.4S29.94 14.42 29 15.4" fill="none" stroke="#8b5a28" stroke-width="1" stroke-linecap="round" opacity=".55"/>
  <circle cx="35" cy="11" r="1.2" fill="#3c2411"/>
</svg>
