<svg preserveAspectRatio="none" width="100%" height="100%" overflow="visible" style="display: block;" viewBox="0 0 167.671 31.9983" fill="none" xmlns="http://www.w3.org/2000/svg">
<g id="61a6275dd539a123b240f117_Logo%20-%20Bloomberg.svg" clip-path="url(#clip0_0_33)">
<path id="Vector" d="M-0.000574216 0H12.2919C14.6333 0 16.3893 0.584806 17.6901 1.55948C19.121 2.72909 19.9015 4.41853 19.9015 6.49783C19.9015 8.90202 18.9259 10.3965 16.9746 11.3062V11.4362C19.5762 12.2809 21.0722 14.6201 21.0722 17.4142C21.0722 20.0783 20.0315 22.1577 18.3405 23.4572C16.9096 24.4969 15.0885 24.9516 12.617 24.9516H-0.000574216V0ZM11.0561 9.74674C12.3569 9.74674 13.3325 9.03199 13.3325 7.53749C13.3325 6.10796 12.3569 5.39319 10.9911 5.39319H6.76351V9.68177H11.0561V9.74674ZM11.6415 19.4285C13.1374 19.4285 14.243 18.5188 14.243 16.8943C14.243 15.1399 13.0724 14.3602 11.6415 14.3602H6.82855V19.4935H11.6415V19.4285Z" fill="var(--fill-0, white)" fill-opacity="0.5"/>
<path id="Vector_2" d="M22.1788 0H28.6177V25.0166H22.1788V0Z" fill="var(--fill-0, white)" fill-opacity="0.5"/>
<path id="Vector_3" d="M29.9172 16.1137C29.9172 10.4606 33.5593 6.69184 39.2178 6.69184C44.8761 6.69184 48.4534 10.5256 48.4534 16.1137C48.4534 21.7668 44.8761 25.5356 39.2178 25.5356C33.5593 25.5356 29.9172 21.7668 29.9172 16.1137ZM42.0144 16.1137C42.0144 12.9948 41.0389 11.0454 39.0876 11.0454C37.1365 11.0454 36.2259 12.9948 36.2259 16.1137C36.2259 19.2327 37.1365 21.247 39.0876 21.247C41.0389 21.182 42.0144 19.2327 42.0144 16.1137Z" fill="var(--fill-0, white)" fill-opacity="0.5"/>
<path id="Vector_4" d="M49.17 16.1137C49.17 10.4606 52.8122 6.69184 58.4706 6.69184C64.1291 6.69184 67.6412 10.4606 67.6412 16.1137C67.6412 21.7668 64.0641 25.5356 58.4056 25.5356C52.8122 25.5356 49.17 21.7668 49.17 16.1137ZM61.2674 16.1137C61.2674 12.9948 60.2917 11.0454 58.3406 11.0454C56.3895 11.0454 55.4788 12.9948 55.4788 16.1137C55.4788 19.2327 56.3895 21.247 58.3406 21.247C60.2917 21.182 61.2674 19.2327 61.2674 16.1137Z" fill="var(--fill-0, white)" fill-opacity="0.5"/>
<path id="Vector_5" d="M68.9408 7.14694H74.9243V9.81104H75.0545C76.2251 7.73174 77.8511 6.62711 80.4527 6.62711C82.7291 6.62711 84.4201 7.73174 85.2656 9.68109H85.3957C86.8265 7.34187 88.7127 6.62711 90.9241 6.62711C95.0865 6.62711 96.8426 9.68109 96.8426 13.7748V24.951H90.5988V14.8793C90.5988 13.0599 90.0135 11.8903 88.4525 11.8903C86.8915 11.8903 86.1112 13.3199 86.1112 15.2692V24.951H79.8674V14.8793C79.8674 13.0599 79.282 11.8903 77.7211 11.8903C76.1601 11.8903 75.3796 13.3199 75.3796 15.2692V24.951H68.9408V7.14694Z" fill="var(--fill-0, white)" fill-opacity="0.5"/>
<path id="Vector_6" d="M104.713 22.6124H104.648V24.9516H98.6643V0H104.908V8.967H105.038C106.209 7.40752 107.835 6.56281 110.111 6.56281C114.599 6.56281 117.201 10.5915 117.201 15.9847C117.201 22.0276 114.404 25.5364 109.721 25.5364C107.77 25.5364 105.754 24.6268 104.713 22.6124ZM110.762 15.9197C110.762 13.0607 109.721 11.1763 107.835 11.1763C105.884 11.1763 104.713 13.0607 104.713 15.9197C104.713 18.7788 105.949 20.6631 107.835 20.6631C109.721 20.6631 110.762 18.8437 110.762 15.9197Z" fill="var(--fill-0, white)" fill-opacity="0.5"/>
<path id="Vector_7" d="M117.916 16.0489C117.916 10.4608 121.623 6.62711 126.956 6.62711C129.623 6.62711 131.639 7.47182 133.2 8.96632C135.282 10.9807 136.192 14.0996 136.126 17.7385H124.16C124.42 19.9476 125.46 21.1172 127.346 21.1172C128.452 21.1172 129.427 20.5974 129.818 19.4278H135.867C134.826 23.5214 131.639 25.5358 127.151 25.5358C121.623 25.4708 117.916 21.702 117.916 16.0489ZM124.16 14.1646H129.883C129.752 12.0203 128.582 10.9157 127.086 10.9157C125.33 10.8507 124.355 12.0853 124.16 14.1646Z" fill="var(--fill-0, white)" fill-opacity="0.5"/>
<path id="Vector_8" d="M143.216 10.2004H143.346C144.647 7.73124 146.337 6.75657 148.484 6.75657C149.004 6.75657 149.33 6.82154 149.525 6.95151V12.4097H149.394C145.687 11.7599 143.541 13.5143 143.541 17.543V25.0155H137.232V7.14644H143.216V10.2004Z" fill="var(--fill-0, white)" fill-opacity="0.5"/>
<path id="Vector_9" d="M150.175 25.0162H156.224C156.484 25.7959 157.264 26.5107 158.759 26.5107C160.776 26.5107 161.492 25.2761 161.492 23.3918V22.0922H161.361C160.386 23.2618 159.02 24.1065 157.069 24.1065C153.231 24.1065 149.85 21.2474 149.85 15.6594C149.85 10.526 152.581 6.56237 156.743 6.56237C159.15 6.56237 160.581 7.53704 161.556 9.03154H161.687V7.08219H167.67V22.547C167.67 25.406 166.695 27.6153 165.199 28.915C163.637 30.2795 161.427 30.8643 158.89 30.8643C154.077 30.9292 150.76 28.9799 150.175 25.0162ZM161.752 15.3994C161.752 13.1901 160.711 11.3708 158.89 11.3708C157.134 11.3708 156.028 12.9303 156.028 15.3994C156.028 17.8036 157.134 19.493 158.89 19.493C160.646 19.493 161.752 17.7386 161.752 15.3994Z" fill="var(--fill-0, white)" fill-opacity="0.5"/>
</g>
<defs>
<clipPath id="clip0_0_33">
<rect width="167.671" height="31.9983" fill="white"/>
</clipPath>
</defs>
</svg>
